<svg xmlns="http://www.w3.org/2000/svg" viewBox="15 7 65 72" width="64" height="64">
  <!-- 뒤쪽 말풍선 (그림자/입체 효과) -->
  <path
    d="M18 23 Q18 10 31 10 L69 10 Q82 10 82 23 L82 48 Q82 61 69 61"
    fill="none"
    stroke="#6B9E9E"
    stroke-width="4"
    opacity="0.4"
  />

  <!-- 앞쪽 말풍선 (메인) -->
  <path
    d="M36 15
       Q23 15 23 28
       L23 50
       Q23 63 36 63
       L38 63
       L35 75
       L52 63
       L64 63
       Q77 63 77 50
       L77 28
       Q77 15 64 15
       Z"
    fill="none"
    stroke="#6B9E9E"
    stroke-width="5"
    stroke-linejoin="round"
  />

  <!-- 하트 (정중앙으로 내림) -->
  <path
    d="M50 34 C50 29 45 25 40 27 C34 30 34 39 50 52 C66 39 66 30 60 27 C55 25 50 29 50 34 Z"
    fill="none"
    stroke="#6B9E9E"
    stroke-width="5"
    stroke-linejoin="round"
  />
</svg>
